<?xml version="1.0" encoding="UTF-8"?>
<svg id="Capa_1" data-name="Capa 1" xmlns="http://www.w3.org/2000/svg" version="1.1" viewBox="0 0 313.85 251.47">
  <defs>
    <style>
      .cls-1 {
        fill: #fab534;
      }

      .cls-1, .cls-2, .cls-3, .cls-4 {
        stroke-width: 0px;
      }

      .cls-2 {
        fill: #f9b433;
        opacity: .96;
      }

      .cls-3 {
        fill: #2a6eb6;
      }

      .cls-4 {
        fill: #fff;
      }

      .cls-5 {
        fill: none;
        stroke: #2a6eb6;
        stroke-miterlimit: 10;
        stroke-width: 6px;
      }
    </style>
  </defs>
  <rect class="cls-5" x="9" y="11.15" width="296.29" height="190.48" rx="16.03" ry="16.03" transform="translate(4.49 -6.35) rotate(2.35)"/>
  <g>
    <path class="cls-2" d="M91.26,71.63c8.52.35,15.05,3.95,19.6,10.79,4.55,6.85,6.58,16.06,6.11,27.63-.49,11.92-3.35,21.05-8.59,27.38-5.24,6.34-12.14,9.33-20.7,8.98-8.48-.35-15-3.7-19.57-10.05l-1.36-.06-3.62,7.8-15.04-.62,4.12-100.43,19.69.81-.96,23.37c-.12,2.97-.58,7.71-1.36,14.23l.77.03c4.9-6.95,11.86-10.25,20.9-9.88ZM84.29,87.12c-4.86-.2-8.47,1.15-10.83,4.05-2.36,2.9-3.72,7.79-4.09,14.67l-.09,2.13c-.32,7.75.6,13.34,2.77,16.8,2.16,3.45,5.74,5.28,10.73,5.48,4.04.17,7.34-1.56,9.88-5.19,2.54-3.62,3.96-8.99,4.25-16.09.29-7.1-.7-12.47-2.96-16.12-2.26-3.65-5.48-5.56-9.66-5.73Z"/>
    <path class="cls-2" d="M142.45,147.37l-19.69-.81,2.96-72.16,19.69.81-2.96,72.16ZM125.65,55.72c.26-6.41,3.97-9.47,11.11-9.18,7.14.29,10.58,3.65,10.32,10.06-.13,3.06-1.12,5.4-2.97,7.02-1.86,1.63-4.57,2.37-8.14,2.22-7.14-.29-10.58-3.67-10.32-10.12Z"/>
    <path class="cls-2" d="M193.69,150.77c-8.48-.35-15-3.7-19.56-10.05l-1.03-.04c.44,6.05.64,9.55.61,10.5l-1.2,29.24-19.69-.81,4.26-103.92,16.01.66,2.39,9.47.9.04c4.9-6.95,11.86-10.25,20.9-9.88,8.52.35,15.05,3.91,19.61,10.7,4.55,6.78,6.58,16.02,6.1,27.73-.32,7.7-1.72,14.35-4.21,19.93-2.49,5.59-5.89,9.78-10.18,12.58-4.3,2.8-9.26,4.08-14.9,3.85ZM190.31,91.47c-4.86-.2-8.47,1.15-10.83,4.05-2.36,2.9-3.72,7.79-4.09,14.67l-.09,2.13c-.32,7.75.6,13.34,2.77,16.79,2.16,3.45,5.74,5.28,10.73,5.48,8.82.36,13.53-6.73,14.13-21.27.29-7.1-.58-12.47-2.6-16.11-2.03-3.64-5.37-5.55-10.01-5.75Z"/>
    <path class="cls-2" d="M232,117.58c1.53-3.28,3.57-5.35,6.11-6.2,2.54-.86,5.49-.5,8.84,1.07,3.24,1.51,5.34,3.54,6.32,6.09.97,2.55.71,5.42-.78,8.62-1.44,3.08-3.47,5.09-6.1,6.03-2.63.94-5.54.66-8.74-.84-3.28-1.53-5.41-3.59-6.39-6.16s-.74-5.44.74-8.6ZM258.85,105.74l-14.28-6.67,23.74-58.57,20.25,9.46-29.71,55.78Z"/>
  </g>
  <g>
    <path class="cls-3" d="M242.26,151.49c-26.3,0-47.63,21.32-47.63,47.63s21.32,47.63,47.63,47.63,47.63-21.32,47.63-47.63-21.32-47.63-47.63-47.63ZM266.17,196.65c-.29,3.44-1.8,6.91-4.48,10.32-2.12,2.69-4.97,5.35-8.48,7.9-5.94,4.33-11.82,6.92-11.88,6.94l-.37.16-.34-.22c-.05-.04-5.42-3.57-10.56-8.83-3.03-3.1-5.4-6.2-7.04-9.2-2.08-3.81-2.99-7.48-2.7-10.92.36-4.26,1.87-7.68,4.38-9.89,2.22-1.95,5.13-2.89,8.21-2.63,0,0,0,0,0,0h0c2.71.23,5.33,1.37,7.37,3.21,1.62,1.46,2.79,3.28,3.46,5.33,1-1.91,2.46-3.51,4.3-4.68,2.32-1.48,5.09-2.16,7.8-1.94,3.08.26,5.8,1.66,7.66,3.96,2.1,2.6,3.03,6.22,2.67,10.48Z"/>
    <path class="cls-1" d="M255.78,182.96c-5.02-.42-10.46,2.5-12.25,8.35-.79-6.07-5.67-9.85-10.69-10.27-5.44-.46-11.04,3.03-11.78,11.84-1.21,14.43,19.96,28.26,19.96,28.26,0,0,23.18-10.12,24.39-24.54.74-8.8-4.2-13.18-9.64-13.63Z"/>
    <path class="cls-4" d="M255.84,182.21c-2.71-.23-5.48.46-7.8,1.94-1.84,1.17-3.3,2.77-4.3,4.68-.67-2.05-1.84-3.87-3.46-5.33-2.04-1.84-4.66-2.98-7.37-3.21h0s0,0,0,0c-3.08-.26-5.99.68-8.21,2.63-2.51,2.21-4.02,5.63-4.38,9.89-.29,3.44.62,7.11,2.7,10.92,1.64,3,4.01,6.1,7.04,9.2,5.14,5.26,10.51,8.79,10.56,8.83l.34.22.37-.16c.06-.03,5.94-2.61,11.88-6.94,3.51-2.56,6.36-5.22,8.48-7.9,2.68-3.41,4.19-6.88,4.48-10.32.36-4.26-.57-7.88-2.67-10.48-1.86-2.3-4.58-3.7-7.66-3.96ZM265.42,196.59c-1.21,14.43-24.39,24.54-24.39,24.54,0,0-21.17-13.84-19.96-28.26.74-8.8,6.34-12.29,11.78-11.84,5.02.42,9.9,4.21,10.69,10.27,1.79-5.85,7.23-8.77,12.25-8.35,5.44.46,10.38,4.83,9.64,13.63Z"/>
  </g>
</svg>